<svg width="20" height="13" viewBox="0 0 20 13" fill="none" xmlns="http://www.w3.org/2000/svg">
<path d="M19.1943 5.89313C19.3044 6.01058 19.3907 6.14909 19.4483 6.30069C19.5693 6.60137 19.5693 6.93863 19.4483 7.23931C19.3907 7.39091 19.3044 7.52941 19.1943 7.64687L14.3553 12.587C14.2425 12.7021 14.1086 12.7935 13.9612 12.8558C13.8138 12.9181 13.6559 12.9502 13.4963 12.9502C13.3368 12.9502 13.1789 12.9181 13.0315 12.8558C12.8841 12.7935 12.7502 12.7021 12.6374 12.587C12.5246 12.4718 12.4351 12.3351 12.3741 12.1847C12.3131 12.0342 12.2816 11.873 12.2816 11.7101C12.2816 11.5473 12.3131 11.386 12.3741 11.2356C12.4351 11.0851 12.5246 10.9484 12.6374 10.8332L15.4198 8.00503H1.39882C1.07797 8.00503 0.770263 7.87491 0.54339 7.6433C0.316518 7.41168 0.189064 7.09755 0.189064 6.77C0.189064 6.44245 0.316518 6.12832 0.54339 5.8967C0.770263 5.66509 1.07797 5.53497 1.39882 5.53497L15.4198 5.53497L12.6374 2.70675C12.524 2.59194 12.434 2.45535 12.3726 2.30485C12.3112 2.15435 12.2796 1.99292 12.2796 1.82989C12.2796 1.66685 12.3112 1.50542 12.3726 1.35492C12.434 1.20442 12.524 1.06783 12.6374 0.953017C12.7499 0.83726 12.8837 0.745378 13.0311 0.682677C13.1785 0.619977 13.3366 0.587696 13.4963 0.587696C13.656 0.587696 13.8142 0.619977 13.9616 0.682677C14.109 0.745378 14.2428 0.83726 14.3553 0.953017L19.1943 5.89313Z" fill="white"/>
</svg>

