<svg width="32" height="32" viewBox="0 0 32 32" fill="none" xmlns="http://www.w3.org/2000/svg">
<rect width="32" height="32" rx="16" fill="#747474" fill-opacity="0.3"/>
<path d="M21.1269 18.5008C20.9682 18.4486 20.8189 18.3432 20.6721 18.2547C20.374 18.0777 20.0891 17.8791 19.8198 17.6606C19.5253 17.428 19.1552 17.3133 18.7807 17.3387C18.4062 17.3641 18.0538 17.5276 17.7912 17.798L17.525 18.0725C16.9515 17.4479 16.4662 16.747 16.0829 15.9892C15.705 15.2286 15.4331 14.4191 15.2746 13.5834L15.6446 13.4798C16.0164 13.4275 16.3562 13.2389 16.5988 12.9503C16.8413 12.6617 16.9694 12.2936 16.9583 11.9168C16.9458 11.5687 16.9563 11.2201 16.9897 10.8732C17.0061 10.7016 17.0321 10.5252 17.0654 10.3511C17.1459 9.81088 17.032 9.26024 16.7441 8.79829C16.4561 8.33634 16.0131 7.99345 15.4949 7.83137L13.3298 7.11934C13.0198 7.01411 12.6906 6.97733 12.3646 7.01149C12.0386 7.04565 11.7236 7.14995 11.4409 7.3173C11.1582 7.48464 10.9144 7.7111 10.7263 7.98126C10.5382 8.25142 10.41 8.55893 10.3506 8.88286C9.73487 12.0507 10.1863 15.3306 11.6336 18.2046C13.081 21.0785 15.4417 23.3828 18.3429 24.7532L18.6171 24.8434C19.1491 25.0192 19.7275 24.9918 20.242 24.7664C20.5378 24.636 20.803 24.4442 21.02 24.2035C21.237 23.9629 21.4009 23.6789 21.5008 23.3703L22.2171 21.1924C22.3741 20.6852 22.3512 20.1396 22.1524 19.6487C21.9536 19.1579 21.5912 18.7521 21.1269 18.5008Z" fill="#FF7D05"/>
</svg>
